<svg width="21" height="22" viewBox="0 0 21 22" fill="none" xmlns="http://www.w3.org/2000/svg">
<path d="M1.00317 19.7306C0.644543 19.7306 0.3703 20.0011 0.3703 20.3549C0.3703 20.7087 0.644543 20.9792 1.00317 20.9792H4.16751C4.52614 20.9792 4.80038 20.7087 4.80038 20.3549V11.4067C4.80038 11.053 4.52614 10.7824 4.16751 10.7824H1.00317C0.644543 10.7824 0.3703 11.053 0.3703 11.4067C0.3703 11.7605 0.644543 12.031 1.00317 12.031H3.53464V19.7306H1.00317ZM19.1454 9.05524C18.618 8.43095 17.8586 8.07719 17.0358 8.07719L13.977 8.098L14.3989 6.93266C14.6731 6.12108 14.863 5.28869 14.9896 4.43549L15.1161 3.60311C15.2005 2.99963 15.0318 2.39614 14.6731 1.91752C14.3145 1.4389 13.7449 1.10594 13.1332 1.02271C12.5214 0.939467 11.9096 1.08513 11.4244 1.45971C10.9392 1.83428 10.6017 2.37533 10.5173 2.97882L10.3907 3.8112C10.0321 6.43322 8.5554 8.78472 6.34036 10.2622C6.04502 10.4495 5.98174 10.8449 6.1716 11.1362C6.36146 11.4275 6.76228 11.49 7.05761 11.3027C9.56799 9.61711 11.2345 6.95347 11.6565 3.97768L11.783 3.14529C11.8252 2.87477 11.9729 2.62505 12.1839 2.45857C12.4159 2.2921 12.6901 2.22967 12.9644 2.25048C13.534 2.33372 13.9348 2.85396 13.8715 3.41582L13.7449 4.24821C13.6395 5.01816 13.4496 5.78812 13.2175 6.49565L12.5003 8.49338C12.437 8.68067 12.4581 8.88877 12.5847 9.05524C12.7112 9.22172 12.9011 9.32577 13.1121 9.32577H17.0569C17.4999 9.32577 17.9008 9.51306 18.1961 9.84601C18.4703 10.179 18.5969 10.616 18.5125 11.0322L17.1624 18.5237C17.0358 19.2104 16.4241 19.7306 15.7068 19.7306H9.39923C8.5554 19.7306 7.71158 19.5849 6.90994 19.2936C6.57241 19.1688 6.21379 19.3352 6.08721 19.6682C5.96064 20.0011 6.12941 20.3549 6.46694 20.4798C7.39514 20.8335 8.38664 21 9.39923 21H15.6857C17.0147 21 18.1539 20.0636 18.386 18.7734L19.7361 11.2819C19.8838 10.4703 19.6728 9.65872 19.1454 9.05524Z" fill="#B1B1B1"/>
</svg>
