<svg width="28" height="23" viewBox="0 0 28 23" fill="none" xmlns="http://www.w3.org/2000/svg">
<path d="M10.656 0L9.875 0.0939999C9.875 0.0939999 6.371 0.477 3.812 2.532H3.782L3.75 2.562C3.176 3.09 2.926 3.739 2.531 4.688C2.06538 5.82976 1.669 6.99855 1.344 8.188C0.602 10.871 0 14.121 0 17.094V17.344L0.125 17.594C1.051 19.219 2.695 20.254 4.219 20.969C5.742 21.684 7.059 22.063 7.969 22.094L8.563 22.125L8.875 21.594L9.969 19.656C11.129 19.918 12.465 20.094 14 20.094C15.535 20.094 16.871 19.918 18.031 19.656L19.125 21.594L19.438 22.125L20.031 22.094C20.941 22.063 22.258 21.684 23.781 20.969C25.305 20.254 26.949 19.219 27.875 17.594L28 17.344V17.094C28 14.121 27.398 10.871 26.656 8.188C26.331 6.99855 25.9346 5.82976 25.469 4.688C25.074 3.738 24.824 3.09 24.25 2.563L24.219 2.531H24.187C21.63 0.477 18.125 0.0939999 18.125 0.0939999L17.344 0L17.062 0.719C17.062 0.719 16.773 1.449 16.594 2.282C15.7343 2.16339 14.8678 2.10059 14 2.094C13.465 2.094 12.54 2.129 11.406 2.282C11.226 1.449 10.937 0.719 10.937 0.719L10.656 0ZM9.281 2.282C9.324 2.422 9.367 2.543 9.406 2.657C8.113 2.977 6.734 3.465 5.469 4.25L6.531 5.938C9.125 4.328 12.851 4.094 14 4.094C15.148 4.094 18.875 4.328 21.469 5.938L22.531 4.25C21.266 3.465 19.887 2.977 18.594 2.656C18.633 2.543 18.676 2.422 18.719 2.281C19.652 2.469 21.434 2.899 22.906 4.063C22.898 4.067 23.281 4.645 23.625 5.469C23.977 6.317 24.367 7.446 24.719 8.719C25.395 11.16 25.926 14.133 25.969 16.75C25.339 17.711 24.172 18.578 22.937 19.157C22.1625 19.523 21.3431 19.7853 20.5 19.937L20 19.094C20.297 18.984 20.59 18.864 20.844 18.75C22.383 18.074 23.219 17.344 23.219 17.344L21.906 15.844C21.906 15.844 21.344 16.36 20.031 16.938C18.72 17.516 16.715 18.094 14 18.094C11.285 18.094 9.281 17.516 7.969 16.938C6.656 16.36 6.094 15.844 6.094 15.844L4.781 17.344C4.781 17.344 5.617 18.074 7.156 18.75C7.41 18.864 7.703 18.985 8 19.094L7.5 19.938C6.65648 19.7857 5.83673 19.5228 5.062 19.156C3.828 18.578 2.66 17.711 2.032 16.75C2.074 14.133 2.605 11.16 3.282 8.719C3.58115 7.61483 3.94614 6.52955 4.375 5.469C4.719 4.645 5.102 4.067 5.094 4.063C6.566 2.899 8.348 2.469 9.281 2.282ZM10.5 9.094C9.727 9.094 9.043 9.535 8.625 10.094C8.207 10.653 8 11.34 8 12.094C8 12.848 8.207 13.535 8.625 14.094C9.043 14.653 9.727 15.094 10.5 15.094C11.273 15.094 11.957 14.653 12.375 14.094C12.793 13.535 13 12.848 13 12.094C13 11.34 12.793 10.653 12.375 10.094C11.957 9.535 11.273 9.094 10.5 9.094ZM17.5 9.094C16.727 9.094 16.043 9.535 15.625 10.094C15.207 10.653 15 11.34 15 12.094C15 12.848 15.207 13.535 15.625 14.094C16.043 14.653 16.727 15.094 17.5 15.094C18.273 15.094 18.957 14.653 19.375 14.094C19.793 13.535 20 12.848 20 12.094C20 11.34 19.793 10.653 19.375 10.094C18.957 9.535 18.273 9.094 17.5 9.094ZM10.5 11.094C10.555 11.094 10.625 11.114 10.75 11.282C10.875 11.449 11 11.742 11 12.094C11 12.446 10.875 12.739 10.75 12.907C10.625 13.074 10.555 13.094 10.5 13.094C10.445 13.094 10.375 13.074 10.25 12.906C10.0846 12.6677 9.99728 12.384 10 12.094C10 11.742 10.125 11.449 10.25 11.281C10.375 11.114 10.445 11.094 10.5 11.094ZM17.5 11.094C17.555 11.094 17.625 11.114 17.75 11.282C17.875 11.449 18 11.742 18 12.094C18 12.446 17.875 12.739 17.75 12.907C17.625 13.074 17.555 13.094 17.5 13.094C17.445 13.094 17.375 13.074 17.25 12.906C17.0846 12.6677 16.9973 12.384 17 12.094C17 11.742 17.125 11.449 17.25 11.281C17.375 11.114 17.445 11.094 17.5 11.094Z" fill="black"/>
</svg>
