<svg width="213" height="216" viewBox="0 0 213 216" fill="none" xmlns="http://www.w3.org/2000/svg">
<rect width="213" height="216" rx="32" fill="#EED9FF"/>
<mask id="mask0" mask-type="alpha" maskUnits="userSpaceOnUse" x="0" y="0" width="213" height="216">
<rect width="213" height="216" rx="32" fill="white"/>
</mask>
<g mask="url(#mask0)">
<g filter="url(#filter0_f)">
<path d="M216.999 47.9985L153.295 -37.8799L112.001 5.50146L40.157 25.8337L76.5015 64.0015L101 149.359L199.322 149.36L216.999 47.9985Z" fill="#FF4C00"/>
</g>
<g filter="url(#filter1_f)">
<path d="M111.104 110.352L191.499 179.5L135.625 170.272L137.94 204.104L75.6911 217.33L9.00469 224.908L-14.3453 174.613L-59.7128 131.335L29.1581 116.089L55.867 58.2551L102.262 52.6718L111.104 110.352Z" fill="#7000FF"/>
</g>
</g>
<path d="M93.3198 164.244V131.178L102.688 121.814L93.3198 112.45V64.3143H112.202V51H80V164.244H93.3198ZM132.255 112.304L122.887 102.94L104.005 121.814L113.373 131.178L132.255 112.304ZM136.207 75.1412H122.887V101.623H136.207V75.1412ZM122.887 54.9504L113.519 64.3143L122.887 73.8244L132.401 64.3143L122.887 54.9504Z" fill="white"/>
<defs>
<filter id="filter0_f" x="-17.6986" y="-95.1997" width="324.169" height="337.134" filterUnits="userSpaceOnUse" color-interpolation-filters="sRGB">
<feFlood flood-opacity="0" result="BackgroundImageFix"/>
<feBlend mode="normal" in="SourceGraphic" in2="BackgroundImageFix" result="shape"/>
<feGaussianBlur stdDeviation="25" result="effect1_foregroundBlur"/>
</filter>
<filter id="filter1_f" x="-112.462" y="-20.1641" width="353.961" height="346.4" filterUnits="userSpaceOnUse" color-interpolation-filters="sRGB">
<feFlood flood-opacity="0" result="BackgroundImageFix"/>
<feBlend mode="normal" in="SourceGraphic" in2="BackgroundImageFix" result="shape"/>
<feGaussianBlur stdDeviation="25" result="effect1_foregroundBlur"/>
</filter>
</defs>
</svg>
