<svg width="26" height="21" viewBox="0 0 26 21" fill="none" xmlns="http://www.w3.org/2000/svg">
<path d="M25 1.13109C23.8 1.71186 22.624 1.94772 21.4 2.30448C20.0548 0.805145 18.0604 0.722178 16.144 1.43095C14.2276 2.13973 12.9724 3.87255 13 5.8602V7.04545C9.106 7.14382 5.638 5.39203 3.4 2.30448C3.4 2.30448 -1.6184 11.1144 8.2 15.3421C5.9536 16.8201 3.7132 17.8169 1 17.7126C4.9696 19.8496 9.2956 20.5845 13.0408 19.5106C17.3368 18.278 20.8672 15.098 22.222 10.3345C22.6261 8.88574 22.8268 7.389 22.8184 5.88628C22.816 5.59115 24.6304 2.60079 25 1.1299V1.13109Z" stroke="black" stroke-width="2" stroke-linecap="round" stroke-linejoin="round"/>
</svg>
